<?xml version="1.0" encoding="UTF-8" standalone="no"?>
<!-- Created with Inkscape (http://www.inkscape.org/) -->

<svg
   xmlns:dc="http://purl.org/dc/elements/1.1/"
   xmlns:cc="http://creativecommons.org/ns#"
   xmlns:rdf="http://www.w3.org/1999/02/22-rdf-syntax-ns#"
   xmlns:svg="http://www.w3.org/2000/svg"
   xmlns="http://www.w3.org/2000/svg"
   xmlns:sodipodi="http://sodipodi.sourceforge.net/DTD/sodipodi-0.dtd"
   xmlns:inkscape="http://www.inkscape.org/namespaces/inkscape"
   width="2020.5327"
   height="566.08167"
   viewBox="0 0 2020.5327 566.08167"
   id="svg2"
   version="1.1"
   inkscape:version="0.92.2 (5c3e80d, 2017-08-06)"
   sodipodi:docname="logo_hb_full3.svg"
   inkscape:export-filename="C:\Users\dcis\Dropbox\HeraldBee\app-listing\shopifyBanners\banner_small7.png"
   inkscape:export-xdpi="9.6000004"
   inkscape:export-ydpi="9.6000004"
   style="enable-background:new">
  <defs
     id="defs4">
    <pattern
       y="0"
       x="0"
       height="6"
       width="6"
       patternUnits="userSpaceOnUse"
       id="EMFhbasepattern" />
  </defs>
  <sodipodi:namedview
     id="base"
     pagecolor="#ffffff"
     bordercolor="#666666"
     borderopacity="1.0"
     inkscape:pageopacity="0.0"
     inkscape:pageshadow="2"
     inkscape:zoom="1.4142136"
     inkscape:cx="1645.2106"
     inkscape:cy="186.23388"
     inkscape:document-units="px"
     inkscape:current-layer="layer5"
     showgrid="false"
     units="px"
     inkscape:window-width="1920"
     inkscape:window-height="1017"
     inkscape:window-x="1912"
     inkscape:window-y="-8"
     inkscape:window-maximized="1"
     showguides="true"
     inkscape:guide-bbox="true"
     borderlayer="true"
     fit-margin-top="0"
     fit-margin-left="0"
     fit-margin-right="0"
     fit-margin-bottom="0">
    <sodipodi:guide
       position="-530.32729,-809.39816"
       orientation="1,0"
       id="guide4527"
       inkscape:locked="false" />
    <sodipodi:guide
       position="6845.6726,2654.6018"
       orientation="0,1"
       id="guide4529"
       inkscape:locked="false" />
    <sodipodi:guide
       position="6263.5546,1181.9524"
       orientation="1,0"
       id="guide4600"
       inkscape:locked="false" />
    <sodipodi:guide
       position="2869.6727,-857.39816"
       orientation="1,0"
       id="guide4602"
       inkscape:locked="false" />
    <sodipodi:guide
       position="2558.3151,200.48828"
       orientation="1,0"
       id="guide4279"
       inkscape:locked="false" />
    <sodipodi:guide
       position="2962.7802,655.86504"
       orientation="0,1"
       id="guide4281"
       inkscape:locked="false" />
    <sodipodi:guide
       position="1019.6508,-467.02053"
       orientation="1,0"
       id="guide4313"
       inkscape:locked="false" />
    <sodipodi:guide
       position="1336,-332"
       orientation="0,1"
       id="guide4898"
       inkscape:locked="false" />
    <sodipodi:guide
       position="-298.3273,-133.39817"
       orientation="1,0"
       id="guide4238"
       inkscape:locked="false" />
    <sodipodi:guide
       position="725.49432,166.54714"
       orientation="0,1"
       id="guide4240"
       inkscape:locked="false" />
    <sodipodi:guide
       position="1945.9606,1032.0458"
       orientation="0,1"
       id="guide1005"
       inkscape:locked="false" />
    <sodipodi:guide
       position="1972.8307,1501.5647"
       orientation="0,1"
       id="guide1007"
       inkscape:locked="false" />
    <sodipodi:guide
       position="2676,288"
       orientation="0,1"
       id="guide888"
       inkscape:locked="false" />
  </sodipodi:namedview>
  <metadata
     id="metadata7">
    <rdf:RDF>
      <cc:Work
         rdf:about="">
        <dc:format>image/svg+xml</dc:format>
        <dc:type
           rdf:resource="http://purl.org/dc/dcmitype/StillImage" />
        <dc:title />
      </cc:Work>
    </rdf:RDF>
  </metadata>
  <g
     inkscape:groupmode="layer"
     id="layer8"
     inkscape:label="kolo">
    <path
       style="opacity:1;fill:#54281f;fill-opacity:1;stroke:none;stroke-width:36.1689949;stroke-linecap:round;stroke-linejoin:round;stroke-miterlimit:4;stroke-dasharray:none;stroke-opacity:1"
       d="M 1991.0411,347.82831 A 209.71782,209.71782 0 0 1 1781.3232,557.54613 209.71782,209.71782 0 0 1 1571.6054,347.82831 209.71782,209.71782 0 0 1 1781.3232,138.11049 209.71782,209.71782 0 0 1 1991.0411,347.82831 Z"
       id="path884" />
  </g>
  <g
     inkscape:groupmode="layer"
     id="layer12"
     inkscape:label="cc">
    <path
       style="opacity:1;fill:#461a14;fill-opacity:1;stroke:none;stroke-width:36.1689949;stroke-linecap:round;stroke-linejoin:round;stroke-miterlimit:4;stroke-dasharray:none;stroke-opacity:1;enable-background:new"
       d="m 1991.0352,347.64844 c -60.1365,132.18996 -162.7917,140.24142 -237.1641,135.49609 -97.5114,-6.22168 -165.2029,-60.74074 -174.5899,-79.11914 25.2364,90.73505 107.8638,153.51909 202.043,153.52149 104.4786,-0.12629 192.9293,-77.13648 207.4336,-180.60352 0.7872,-10.12822 1.4738,-19.72386 2.2461,-28.38867 0.013,-0.24217 0.025,-0.48436 0.037,-0.72657 z"
       id="circle910"
       inkscape:connector-curvature="0"
       sodipodi:nodetypes="cscccccc" />
  </g>
  <g
     inkscape:groupmode="layer"
     id="layer3"
     inkscape:label="pszxzola"
     transform="translate(-530.32729,-88.52015)"
     style="display:inline">
    <g
       id="g1016"
       transform="matrix(1.0491546,-0.20393502,0.20393502,1.0491546,1862.7335,-25.607295)"
       inkscape:export-xdpi="6.9128618"
       inkscape:export-ydpi="6.9128618"
       style="opacity:0.98999999;fill:#f0f0f0;fill-opacity:1;enable-background:new">
      <path
         inkscape:export-ydpi="4.1169868"
         inkscape:export-xdpi="4.1169868"
         sodipodi:nodetypes="cssssc"
         inkscape:connector-curvature="0"
         id="path852"
         d="m 283.46946,283.08609 c 0,0 19.70571,-101.26502 -48.2272,-124.41306 -14.33711,-4.88535 -40.97953,25.93922 -42.57184,60.86832 -1.81258,39.76107 25.64609,102.88607 32.91157,105.59381 6.68166,2.49015 22.11214,-6.02503 33.57847,-14.1531 20.35587,-14.42955 24.309,-27.89597 24.309,-27.89597 z"
         style="fill:#f0f0f0;fill-opacity:1;stroke:#54281f;stroke-width:8;stroke-linecap:butt;stroke-linejoin:miter;stroke-miterlimit:4;stroke-dasharray:none;stroke-opacity:1" />
      <path
         inkscape:export-ydpi="4.1169868"
         inkscape:export-xdpi="4.1169868"
         sodipodi:nodetypes="csssc"
         inkscape:connector-curvature="0"
         id="path852-2"
         d="m 214.60511,328.86743 c 0,0 -57.08017,-113.60361 -127.878261,-101.84164 -14.9418,2.48235 -23.82162,42.24566 -8.69213,73.7683 17.22244,35.88337 51.333271,53.52185 64.013511,59.20115 22.89385,10.25382 75.69043,-18.05908 72.55688,-31.12781 z"
         style="fill:#f0f0f0;fill-opacity:1;stroke:#54281f;stroke-width:8;stroke-linecap:butt;stroke-linejoin:miter;stroke-miterlimit:4;stroke-dasharray:none;stroke-opacity:1" />
    </g>
    <g
       style="display:inline;enable-background:new"
       id="g1035"
       transform="matrix(0.85499871,0.23711212,-0.23711212,0.85499871,2213.3383,-143.38074)">
      <path
         transform="rotate(-13.76038)"
         style="opacity:1;fill:#54281f;fill-opacity:1;stroke:none;stroke-width:14.18796349;stroke-miterlimit:4;stroke-dasharray:none;stroke-opacity:1"
         d="m 321.83457,403.78049 a 18.02466,12.915307 0 0 1 -18.02466,12.9153 18.02466,12.915307 0 0 1 -18.02466,-12.9153 18.02466,12.915307 0 0 1 18.02466,-12.91531 18.02466,12.915307 0 0 1 18.02466,12.91531 z"
         id="ellipse1031" />
      <path
         style="fill:none;stroke:#54281f;stroke-width:6;stroke-linecap:butt;stroke-linejoin:miter;stroke-miterlimit:4;stroke-dasharray:none;stroke-opacity:1"
         d="m 390.55273,310.64684 c 0,0 -40.84861,11.98125 -49.50022,71.41092"
         id="path1033"
         inkscape:connector-curvature="0"
         sodipodi:nodetypes="cc" />
    </g>
    <path
       style="display:inline;opacity:1;fill:#54281f;fill-opacity:1;stroke:none;stroke-width:8.55033207;stroke-miterlimit:4;stroke-dasharray:none;stroke-opacity:1;enable-background:new"
       d="m 2312.386,234.7035 a 200.81572,200.81572 0 0 0 -32.2063,2.6887 c -69.7403,199.46324 74.0489,359.7637 105.8688,384.89496 a 200.81572,200.81572 0 0 0 56.1057,-33.8016 C 2284.5252,451.61474 2313.1196,277.9185 2335.5345,236.1754 a 200.81572,200.81572 0 0 0 -23.1485,-1.4719 z m -85.0834,19.15917 a 200.81572,200.81572 0 0 0 -62.4179,45.74927 c -58.461,172.34552 27.5175,281.32043 65.1,318.84211 a 200.81572,200.81572 0 0 0 82.4013,17.88113 200.81572,200.81572 0 0 0 2.6041,-0.0922 C 2171.2183,494.54575 2202.4957,283.79521 2227.3026,253.86265 Z m -68.2753,52.03681 a 200.81572,200.81572 0 0 0 -0.4187,0.4943 c 0.1394,-0.1651 0.279,-0.32965 0.4187,-0.4943 z"
       id="path831"
       inkscape:connector-curvature="0" />
    <path
       style="display:inline;opacity:1;fill:#ffd742;fill-opacity:1;stroke:none;stroke-width:8.55033207;stroke-miterlimit:4;stroke-dasharray:none;stroke-opacity:1;enable-background:new"
       d="m 2335.6764,235.90815 c -22.4454,41.29131 -51.5125,215.57832 106.6937,352.7669 45.0295,-38.14403 71.032,-94.1417 71.1176,-153.15538 -0.035,-49.27886 -18.1599,-96.83013 -50.9378,-133.62689 -32.7782,-36.79684 -77.9262,-60.27757 -126.8735,-65.98463 z m -55.4188,1.25957 c -15.995,2.10147 -37.7492,9.31591 -52.213,15.84595 -24.9194,26.57165 -58.2999,240.34905 87.1813,383.46296 24.3419,-0.32278 48.4231,-5.06264 71.0718,-13.98896 -31.3449,-24.52112 -176.1427,-185.25045 -106.0401,-385.31995 z m -115.2045,61.94164 c -34.4512,37.08313 -53.6513,85.79392 -53.7683,136.41031 0.1101,79.25175 46.7531,151.04941 119.1208,183.35698 -37.3961,-37.16625 -124.3694,-146.49307 -65.3525,-319.76729 z"
       id="circle894"
       inkscape:connector-curvature="0"
       sodipodi:nodetypes="cccscccccccccc" />
    <path
       transform="rotate(-9.2823104)"
       style="display:inline;opacity:1;fill:#54281f;fill-opacity:1;stroke:none;stroke-width:9.87125874;stroke-miterlimit:4;stroke-dasharray:none;stroke-opacity:1;enable-background:new"
       d="m 2317.6975,717.20923 a 16.452097,35.959579 0 0 1 -16.4521,35.95958 16.452097,35.959579 0 0 1 -16.4521,-35.95958 16.452097,35.959579 0 0 1 16.4521,-35.95958 16.452097,35.959579 0 0 1 16.4521,35.95958 z"
       id="path870" />
    <path
       transform="rotate(-4.821826)"
       style="display:inline;opacity:1;fill:#54281f;fill-opacity:1;stroke:none;stroke-width:6.50962639;stroke-miterlimit:4;stroke-dasharray:none;stroke-opacity:1;enable-background:new"
       d="m 2408.8203,544.77032 a 10.849379,23.71364 0 0 1 -10.8494,23.71364 10.849379,23.71364 0 0 1 -10.8493,-23.71364 10.849379,23.71364 0 0 1 10.8493,-23.71364 10.849379,23.71364 0 0 1 10.8494,23.71364 z"
       id="path870-1" />
    <path
       style="display:inline;opacity:1;fill:#54281f;fill-opacity:1;stroke:none;stroke-width:15.1639719;stroke-miterlimit:4;stroke-dasharray:none;stroke-opacity:1;enable-background:new"
       d="m 2445.837,190.02688 a 13.803769,19.2646 68.331572 0 1 -12.8066,19.94154 13.803769,19.2646 68.331572 0 1 -23.0001,-5.71512 13.803769,19.2646 68.331572 0 1 12.8066,-19.94154 13.803769,19.2646 68.331572 0 1 23.0001,5.71512 z"
       id="path1006"
       inkscape:connector-curvature="0" />
    <path
       style="color:#000000;font-style:normal;font-variant:normal;font-weight:normal;font-stretch:normal;font-size:medium;line-height:normal;font-family:sans-serif;font-variant-ligatures:normal;font-variant-position:normal;font-variant-caps:normal;font-variant-numeric:normal;font-variant-alternates:normal;font-feature-settings:normal;text-indent:0;text-align:start;text-decoration:none;text-decoration-line:none;text-decoration-style:solid;text-decoration-color:#000000;letter-spacing:normal;word-spacing:normal;text-transform:none;writing-mode:lr-tb;direction:ltr;text-orientation:mixed;dominant-baseline:auto;baseline-shift:baseline;text-anchor:start;white-space:normal;shape-padding:0;clip-rule:nonzero;display:inline;overflow:visible;visibility:visible;opacity:1;isolation:auto;mix-blend-mode:normal;color-interpolation:sRGB;color-interpolation-filters:linearRGB;solid-color:#000000;solid-opacity:1;vector-effect:none;fill:#54281f;fill-opacity:1;fill-rule:nonzero;stroke:none;stroke-width:6.41274881;stroke-linecap:round;stroke-linejoin:round;stroke-miterlimit:4;stroke-dasharray:none;stroke-dashoffset:0;stroke-opacity:1;color-rendering:auto;image-rendering:auto;shape-rendering:auto;text-rendering:auto;enable-background:accumulate"
       d="m 2421.7488,185.50937 c -0.505,0 -1.0023,0.12755 -1.4508,0.36094 0,0 -37.5093,19.11143 -44.8264,72.63194 -0.367,2.63626 -0.2851,16.88237 1.4927,17.76195 1.085,0.5368 3.429,-6.21807 4.8617,-16.89347 6.9524,-50.85222 41.3467,-67.76809 41.3467,-67.76809 3.0803,-1.48973 1.9979,-6.12265 -1.4239,-6.09327 z"
       id="path1023"
       inkscape:connector-curvature="0"
       sodipodi:nodetypes="cccsccc" />
  </g>
  <g
     inkscape:groupmode="layer"
     id="layer10"
     inkscape:label="pcc"
     style="display:inline">
    <path
       style="display:inline;opacity:1;fill:#461a14;fill-opacity:1;stroke:none;stroke-width:8.55033207;stroke-miterlimit:4;stroke-dasharray:none;stroke-opacity:1;enable-background:new"
       d="m 1644.9199,453.66406 c 17.9625,36.01853 40.0479,61.60294 54.7383,76.26953 a 200.81572,200.81572 0 0 0 77.7617,17.81641 200.81572,200.81572 0 0 0 0.014,0.002 c 0.014,3.3e-4 0.027,-3.2e-4 0.041,0 a 200.81572,200.81572 0 0 0 4.584,0.0625 200.81572,200.81572 0 0 0 2.6035,-0.0918 c -21.3549,-21.04673 -38.8465,-43.61579 -53.0723,-66.89063 -35.1405,-5.06007 -64.4214,-16.0515 -86.6699,-27.16797 z m 231.0664,11.18164 c -22.0594,8.77478 -45.0572,14.05049 -67.2168,16.71289 19.7208,26.89378 37.8834,45.04729 46.9512,52.20899 a 200.81572,200.81572 0 0 0 56.1055,-33.80274 c -13.2212,-11.48009 -25.1253,-23.22049 -35.8399,-35.11914 z"
       id="path900"
       inkscape:connector-curvature="0" />
  </g>
  <g
     inkscape:groupmode="layer"
     id="layer9"
     inkscape:label="pc1"
     style="display:inline">
    <path
       style="display:inline;opacity:1;fill:#d48f2a;fill-opacity:1;stroke:none;stroke-width:8.55033207;stroke-miterlimit:4;stroke-dasharray:none;stroke-opacity:1;enable-background:new"
       d="m 1982.2949,365.11719 c -22.5223,51.44365 -62.5699,82.43409 -106.2793,99.76562 10.7651,11.95191 22.7323,23.74262 36.0274,35.27149 35.1431,-29.76938 58.6935,-70.41366 67.3828,-114.87891 0.015,-0.0782 0.032,-0.15613 0.047,-0.23437 0.2687,-1.38372 0.5121,-2.77319 0.7519,-4.16407 0.088,-0.51525 0.1837,-1.02876 0.2676,-1.54492 0.1047,-0.63701 0.1943,-1.2776 0.293,-1.91601 0.6227,-4.0754 1.1355,-8.17538 1.5097,-12.29883 z m -386.5683,57.14648 c 0.027,0.10202 0.056,0.20288 0.084,0.30469 19.2124,47.15239 56.0196,86.24937 104.2676,107.78906 -14.6584,-14.56831 -36.9319,-40.22853 -55.0469,-76.47656 -31.6462,-15.65575 -49.3046,-31.61719 -49.3046,-31.61719 z m 135.8672,58.57227 c 14.2777,23.35923 31.8438,46.00949 53.3046,67.12109 24.3419,-0.32278 48.4236,-5.06391 71.0723,-13.99023 -8.9858,-7.02961 -27.2996,-25.27086 -47.1973,-52.40625 -19.3448,2.32091 -38.0438,2.65964 -54.9023,1.58398 -7.6592,-0.48869 -15.0887,-1.27575 -22.2773,-2.30859 z"
       id="path892"
       inkscape:connector-curvature="0" />
  </g>
  <g
     inkscape:groupmode="layer"
     id="layer5"
     inkscape:label="napis"
     style="display:inline"
     transform="translate(-530.32729,-88.52015)">
    <g
       id="g928"
       transform="matrix(0.97384842,0,0,0.97384842,-395.76504,1376.4169)">
      <path
         inkscape:connector-curvature="0"
         style="fill:#54281f;fill-opacity:1;fill-rule:nonzero;stroke:none;stroke-width:0.42250019"
         d="m 1918.9868,-876.62972 h 73.6835 l 4.9009,-11.15392 c 9.1598,7.87535 18.3195,14.7367 43.23,14.7367 46.1705,0 74.6637,-33.73217 75.6438,-84.16142 0.9802,-43.87214 -25.5526,-85.78384 -75.3396,-85.78384 -16.0212,0 -35.6926,6.8614 -42.892,15.3789 v -94.6394 h -79.2266 v 42.8919 h 13.7227 v 160.14338 h -13.7227 z m 125.3971,-79.90264 c 0,24.87663 -9.4977,40.93152 -23.2542,40.93152 -12.4383,0 -23.5585,-17.03508 -23.5585,-39.30913 -1.3182,-25.85682 10.478,-41.91171 23.2543,-41.91171 14.3987,0 23.5584,20.61785 23.5584,40.28932 z"
         id="path885" />
      <path
         inkscape:connector-curvature="0"
         style="fill:#54281f;fill-opacity:1;fill-rule:nonzero;stroke:none;stroke-width:0.42250019"
         d="m 2268.8144,-931.01354 c -17.7111,14.7367 -34.7124,15.71689 -45.8663,15.71689 -27.513,0 -31.7718,-18.01527 -33.7322,-26.83701 h 103.1569 c 6.8952,-18.65747 3.2786,-43.8721 -0.6422,-55.36402 -9.4977,-27.47922 -39.3091,-47.45492 -78.2803,-47.45492 -49.449,0 -88.0821,31.738 -88.0821,85.44586 0,62.90136 45.8325,88.75819 86.4598,88.75819 34.0363,0 60.2311,-7.53735 84.4656,-28.49321 z m -78.6183,-43.5341 c 0.676,-8.21334 5.239,-26.19486 25.2146,-26.19486 20.9559,0 23.9303,13.72275 24.2345,26.19486 z"
         id="path887" />
      <path
         inkscape:connector-curvature="0"
         style="fill:#54281f;fill-opacity:1;fill-rule:nonzero;stroke:none;stroke-width:0.42250019"
         d="m 2446.6011,-931.01354 c -17.6772,14.7367 -34.7123,15.71689 -45.8324,15.71689 -27.5131,0 -31.7718,-18.01527 -33.7322,-26.83701 h 103.1569 c 6.8613,-18.65747 3.2786,-43.8721 -0.676,-55.36402 -9.4978,-27.47922 -39.2754,-47.45492 -78.2465,-47.45492 -49.449,0 -88.0821,31.738 -88.0821,85.44586 0,62.90136 45.8324,88.75819 86.4259,88.75819 34.0702,0 60.265,-7.53735 84.4995,-28.49321 z m -78.5844,-43.5341 c 0.6422,-8.21334 5.2389,-26.19486 25.2146,-26.19486 20.9559,0 23.8965,13.72275 24.2345,26.19486 z"
         id="path889" />
      <path
         inkscape:connector-curvature="0"
         style="fill:#d48f2a;fill-opacity:1;fill-rule:nonzero;stroke:none;stroke-width:0.42250019"
         d="m 1094.3739,-876.62972 h -22.2741 v -95.31534 c 0,-19.43486 -3.3799,-33.93494 -10.1399,-43.53414 -6.5571,-9.6329 -16.2577,-14.4325 -29.1354,-14.4325 -6.3205,0 -12.6749,1.3182 -18.9954,3.9208 -6.1178,2.4336 -11.8976,5.8136 -17.37311,10.1737 -5.4418,4.3602 -10.2414,9.4978 -14.3987,15.3789 -3.9208,5.915 -6.8614,12.33696 -8.8556,19.33351 v 104.47507 h -22.24022 v -239.06578 h 22.24022 v 107.0777 c 6.7938,-12.8777 16.1563,-23.0176 28.18901,-30.4536 11.999,-7.4359 24.9781,-11.1201 38.9712,-11.1201 9.8019,0 18.1166,1.8252 24.8766,5.5431 6.7599,3.5152 12.3369,8.5176 16.6971,15.0747 4.3602,6.3206 7.5373,14.0945 9.4977,23.2543 1.9604,8.95692 2.9406,18.89405 2.9406,29.77758 z"
         id="path891" />
      <path
         inkscape:connector-curvature="0"
         style="fill:#d48f2a;fill-opacity:1;fill-rule:nonzero;stroke:none;stroke-width:0.42250019"
         d="m 1215.8841,-873.38494 c -12.4384,0 -23.9303,-2.26458 -34.4082,-6.86135 -10.2413,-4.79957 -19.1983,-11.25532 -26.837,-19.33346 -7.6388,-8.28095 -13.6551,-17.77868 -18.0153,-28.49321 -4.1574,-10.68073 -6.2192,-22.13885 -6.2192,-34.37436 0,-11.99892 2.0618,-23.25424 6.2192,-33.73217 4.3602,-10.68071 10.2751,-19.97571 17.6773,-27.81721 7.6387,-8.0781 16.6971,-14.4325 27.175,-18.9955 10.4779,-4.7995 21.8346,-7.1993 34.0702,-7.1993 12.4383,0 23.795,2.3998 34.0701,7.1993 10.4779,4.563 19.4349,10.9174 26.837,18.9955 7.436,8.0781 13.2157,17.3393 17.3731,27.81721 4.1236,10.47793 6.2192,21.63185 6.2192,33.39417 v 5.23896 c 0,1.75759 -0.1352,2.97439 -0.338,3.61658 h -146.0488 c 0.6422,9.15974 2.7378,17.67728 6.2191,25.55262 3.718,7.63875 8.4162,14.2973 14.0945,19.97567 5.6446,5.67836 12.1004,10.13992 19.2997,13.4185 7.436,3.04198 15.2775,4.59677 23.5922,4.59677 5.4418,0 10.9174,-0.77739 16.3591,-2.29838 5.4756,-1.52099 10.478,-3.61658 15.0747,-6.21916 4.5968,-2.63638 8.7204,-5.77976 12.4383,-9.49773 3.718,-3.95458 6.5572,-8.17955 8.5176,-12.77632 l 19.3335,5.23897 c -2.6364,6.32055 -6.3544,12.10031 -11.154,17.33928 -4.7995,5.03616 -10.3765,9.49773 -16.6971,13.4523 -6.3205,3.68418 -13.3171,6.52336 -20.9558,8.51754 -7.6388,2.16319 -15.6155,3.24478 -23.8964,3.24478 z m 62.8675,-97.57992 c -0.6422,-9.15974 -2.8392,-17.47448 -6.5571,-24.87663 -3.4814,-7.63871 -8.0782,-14.19591 -13.7565,-19.63771 -5.4418,-5.4755 -11.8976,-9.7343 -19.2997,-12.7763 -7.2332,-3.0757 -14.9733,-4.5967 -23.2542,-4.5967 -8.3148,0 -16.1563,1.521 -23.5923,4.5967 -7.4359,3.042 -13.9593,7.3008 -19.6376,12.7763 -5.4756,5.4418 -9.9372,11.999 -13.4186,19.63771 -3.2785,7.63875 -5.2389,15.91969 -5.9149,24.87663 z"
         id="path893" />
      <path
         inkscape:connector-curvature="0"
         style="fill:#d48f2a;fill-opacity:1;fill-rule:nonzero;stroke:none;stroke-width:0.42250019"
         d="m 1419.8656,-1027.6133 c -15.0747,0.4394 -28.189,4.5968 -39.3091,12.4383 -11.1201,7.8754 -18.9954,18.65752 -23.5922,32.41402 v 106.13126 h -22.2403 v -170.62118 h 20.9559 v 40.9315 c 6.3206,-13.1143 14.8381,-23.3557 25.5188,-30.7916 10.7145,-7.436 22.1726,-11.1201 34.4082,-11.1201 1.7238,0 3.1434,0.1014 4.2587,0.3042 z"
         id="path895" />
      <path
         inkscape:connector-curvature="0"
         style="fill:#d48f2a;fill-opacity:1;fill-rule:nonzero;stroke:none;stroke-width:0.42250019"
         d="m 1490.1691,-873.38494 c -8.0781,0 -15.5816,-1.28439 -22.5782,-3.92077 -6.76,-2.83918 -12.7763,-6.65855 -18.0153,-11.45812 -5.0361,-4.79957 -8.9569,-10.37653 -11.7961,-16.69708 -2.8392,-6.55716 -4.2588,-13.55371 -4.2588,-20.95586 0,-7.43595 1.7576,-14.2973 5.239,-20.65166 3.5152,-6.32055 8.4162,-11.76232 14.7367,-16.35908 6.3543,-4.59677 13.8579,-8.07815 22.6121,-10.47793 8.7203,-2.63638 18.3194,-3.92077 28.7974,-3.92077 8.7541,0 17.5758,0.74359 26.5328,2.29838 8.9569,1.52099 16.9337,3.68417 23.8964,6.52335 v -15.37889 c 0,-15.07469 -4.2588,-26.97223 -12.7425,-35.69253 -8.5176,-8.957 -20.3136,-13.4185 -35.3884,-13.4185 -8.7203,0 -17.6773,1.7238 -26.837,5.2389 -9.1935,3.4814 -18.4547,8.5176 -27.851,15.0409 l -7.8415,-14.7367 c 22.0374,-14.8381 43.4327,-22.2402 64.1857,-22.2402 21.3953,0 38.1938,5.9825 50.4293,17.9815 12.2017,12.0327 18.3195,28.6284 18.3195,49.78702 v 76.96207 c 0,6.11775 2.7377,9.15973 8.1795,9.15973 v 19.67146 c -3.6842,0.6422 -6.5233,0.9802 -8.4837,0.9802 -5.6784,0 -10.1738,-1.41959 -13.4524,-4.25877 -3.0419,-2.83918 -4.6981,-6.79375 -4.9009,-11.79612 l -0.6422,-13.41851 c -7.8753,10.24133 -17.8125,18.11668 -29.8114,23.55844 -11.7961,5.47556 -24.5724,8.17954 -38.329,8.17954 z m 5.239,-17.00128 c 11.5933,0 22.1727,-2.19699 31.7718,-6.55715 9.8357,-4.36017 17.2379,-10.13993 22.2741,-17.37309 1.9603,-1.96038 3.3799,-4.02217 4.2587,-6.21915 1.0816,-2.39978 1.6224,-4.56297 1.6224,-6.55715 v -27.81721 c -7.4021,-2.83918 -15.1423,-5.03617 -23.2204,-6.55716 -7.8754,-1.52099 -15.9535,-2.29838 -24.2345,-2.29838 -15.7168,0 -28.4932,3.27857 -38.3289,9.83573 -9.8358,6.55715 -14.7367,15.17609 -14.7367,25.85682 0,5.23896 0.9802,10.17373 2.9406,14.7367 2.1969,4.59677 5.0361,8.65274 8.5175,12.13411 3.718,3.27858 8.0782,5.88116 13.1143,7.84155 5.0024,1.99419 10.3427,2.97438 16.0211,2.97438 z"
         id="path897" />
      <path
         inkscape:connector-curvature="0"
         style="fill:#d48f2a;fill-opacity:1;fill-rule:nonzero;stroke:none;stroke-width:0.42250019"
         d="m 1626.7202,-1115.6955 h 22.274 v 200.39885 c 0,6.35436 1.7238,11.35672 5.239,15.0747 3.4814,3.48138 8.3824,5.23896 14.7367,5.23896 2.3998,0 5.239,-0.338 8.5176,-0.98019 3.2448,-0.6422 6.3205,-1.52099 9.1597,-2.63638 l 3.9208,18.01527 c -4.1574,1.75759 -9.2611,3.17718 -15.3789,4.25877 -5.915,1.1154 -11.0187,1.65619 -15.4127,1.65619 -10.2414,0 -18.3195,-2.83918 -24.2344,-8.51754 -5.8812,-5.91496 -8.8218,-14.0945 -8.8218,-24.57243 z"
         id="path899" />
      <path
         inkscape:connector-curvature="0"
         style="fill:#d48f2a;fill-opacity:1;fill-rule:nonzero;stroke:none;stroke-width:0.42250019"
         d="m 1784.7003,-873.38494 c -11.7623,0 -22.6796,-2.39978 -32.7182,-7.19935 -10.0723,-5.00236 -18.6912,-11.55951 -25.8906,-19.63766 -7.1993,-8.07814 -12.8777,-17.37308 -17.035,-27.85101 -3.9208,-10.68073 -5.8812,-21.80085 -5.8812,-33.39417 0,-11.99891 1.9604,-23.35564 5.8812,-34.03636 3.9545,-10.91731 9.2949,-20.41511 16.0548,-28.49321 6.9966,-8.0781 15.1761,-14.4325 24.5725,-18.9955 9.5991,-4.7995 20.077,-7.1993 31.4337,-7.1993 14.3988,0 27.175,3.8194 38.2952,11.4581 11.1539,7.4022 19.8742,16.4605 26.2286,27.175 v -104.1371 h 22.2402 v 210.23459 c 0,6.11775 2.6364,9.15973 7.8754,9.15973 v 19.67146 c -3.2786,0.6422 -5.8811,0.9802 -7.8754,0.9802 -5.2389,0 -9.8019,-1.65619 -13.7227,-4.93477 -3.9545,-3.48137 -5.9149,-7.63874 -5.9149,-12.43831 v -16.69709 c -6.76,11.12013 -15.9197,19.97567 -27.513,26.53282 -11.5596,6.55715 -23.5585,9.80193 -36.0306,9.80193 z m 4.9348,-19.63766 c 5.4418,0 11.2215,-1.08159 17.3393,-3.27858 6.3543,-2.16318 12.2355,-5.13756 17.7111,-8.82174 5.4417,-3.95457 10.0385,-8.41614 13.7226,-13.4523 3.9546,-5.23897 6.3544,-10.78213 7.2332,-16.69709 v -52.72763 c -2.197,-5.88116 -5.3742,-11.32293 -9.4978,-16.35906 -4.1573,-5.239 -8.9569,-9.8358 -14.4324,-13.7565 -5.239,-3.9208 -10.9174,-6.9966 -17.0013,-9.1598 -6.1178,-2.197 -12.1341,-3.2786 -18.0153,-3.2786 -9.1935,0 -17.4745,1.9604 -24.9104,5.8812 -7.4022,3.9546 -13.8579,9.1935 -19.2997,15.7169 -5.2389,6.3544 -9.2949,13.65511 -12.1341,21.93605 -2.8392,8.31474 -4.2588,16.83228 -4.2588,25.55262 0,9.15974 1.6562,17.91388 4.9348,26.19482 3.2448,8.31475 7.7402,15.61549 13.4185,21.93605 5.6784,6.11776 12.3369,11.05252 19.9757,14.7367 7.8415,3.71797 16.2576,5.57696 25.2146,5.57696 z"
         id="path901" />
    </g>
  </g>
</svg>
