<?xml version="1.0" encoding="UTF-8" standalone="no"?><!DOCTYPE svg PUBLIC "-//W3C//DTD SVG 1.1//EN" "http://www.w3.org/Graphics/SVG/1.1/DTD/svg11.dtd"><svg width="100%" height="100%" viewBox="0 0 180 35" version="1.1" xmlns="http://www.w3.org/2000/svg" xmlns:xlink="http://www.w3.org/1999/xlink" xml:space="preserve" xmlns:serif="http://www.serif.com/" style="fill-rule:evenodd;clip-rule:evenodd;stroke-linecap:round;stroke-linejoin:round;"><g id="Layer-1" serif:id="Layer 1"><g><g><g><g><text x="41.088px" y="26.509px" style="font-family:'ArialRoundedMTBold', 'Arial Rounded MT Bold', sans-serif;font-size:27.587px;fill:#943fbe;">He<tspan x="77.725px 92.676px " y="26.509px 26.509px ">yS</tspan>pace</text><path d="M46.712,7.024c-0.373,-0.399 -0.86,-0.6 -1.462,-0.6c-0.611,0 -1.093,0.203 -1.448,0.607c-0.355,0.404 -0.532,1.01 -0.532,1.818l0,15.558c0,0.808 0.18,1.417 0.539,1.825c0.359,0.409 0.84,0.613 1.441,0.613c0.593,0 1.078,-0.202 1.455,-0.606c0.377,-0.404 0.566,-1.015 0.566,-1.832l0,-6.641l8.634,0l0,6.641c0,0.808 0.18,1.417 0.539,1.825c0.359,0.409 0.839,0.613 1.441,0.613c0.593,0 1.078,-0.202 1.455,-0.606c0.377,-0.404 0.566,-1.015 0.566,-1.832l0,-15.558c0,-0.817 -0.187,-1.426 -0.559,-1.825c-0.373,-0.399 -0.86,-0.6 -1.462,-0.6c-0.592,0 -1.07,0.203 -1.434,0.607c-0.364,0.404 -0.546,1.01 -0.546,1.818l0,5.657l-8.634,0l0,-5.657c0,-0.817 -0.187,-1.426 -0.559,-1.825Z" style="fill:none;fill-rule:nonzero;stroke:#943fbe;stroke-width:1px;"/><path d="M76.447,19.861c0.53,-0.273 0.795,-0.873 0.795,-1.798c0,-0.997 -0.256,-1.975 -0.768,-2.936c-0.512,-0.961 -1.282,-1.745 -2.31,-2.351c-1.029,-0.606 -2.261,-0.909 -3.697,-0.909c-1.105,0 -2.111,0.177 -3.018,0.531c-0.907,0.356 -1.67,0.865 -2.29,1.529c-0.619,0.665 -1.091,1.462 -1.414,2.391c-0.323,0.93 -0.485,1.938 -0.485,3.024c0,2.308 0.655,4.135 1.966,5.483c1.311,1.347 3.148,2.02 5.51,2.02c1.032,0 1.946,-0.134 2.741,-0.404c0.795,-0.269 1.455,-0.608 1.98,-1.017c0.526,-0.409 0.918,-0.835 1.179,-1.28c0.26,-0.444 0.391,-0.833 0.391,-1.165c0,-0.377 -0.118,-0.669 -0.351,-0.875c-0.233,-0.207 -0.539,-0.31 -0.916,-0.31c-0.35,0 -0.62,0.081 -0.808,0.243c-0.458,0.43 -0.831,0.772 -1.118,1.023c-0.287,0.251 -0.602,0.488 -0.943,0.707c-0.341,0.22 -0.694,0.382 -1.057,0.486c-0.364,0.102 -0.766,0.154 -1.206,0.154c-0.656,0 -1.255,-0.161 -1.798,-0.484c-0.544,-0.324 -0.979,-0.804 -1.307,-1.442c-0.328,-0.638 -0.496,-1.374 -0.505,-2.209l7.193,0c0.961,0 1.706,-0.137 2.236,-0.411Zm-8.358,-4.485c0.588,-0.634 1.34,-0.951 2.256,-0.951c0.961,0 1.735,0.313 2.324,0.937c0.588,0.624 0.927,1.564 1.017,2.822l-6.668,0c0.126,-1.239 0.483,-2.176 1.071,-2.808Z" style="fill:none;fill-rule:nonzero;stroke:#943fbe;stroke-width:1px;"/><path d="M82.354,28.671c-0.193,0.31 -0.411,0.527 -0.653,0.653c-0.243,0.125 -0.575,0.189 -0.997,0.189c-0.171,0 -0.373,-0.028 -0.606,-0.081c-0.189,-0.054 -0.382,-0.081 -0.579,-0.081c-0.503,0 -0.883,0.115 -1.139,0.343c-0.255,0.23 -0.383,0.555 -0.383,0.977c0,0.62 0.269,1.046 0.808,1.28c0.538,0.234 1.347,0.35 2.424,0.35c1.105,0 1.982,-0.168 2.634,-0.505c0.651,-0.337 1.174,-0.819 1.569,-1.448c0.395,-0.629 0.799,-1.495 1.213,-2.6l4.794,-12.554c0.117,-0.324 0.216,-0.642 0.297,-0.957c0.081,-0.314 0.139,-0.556 0.175,-0.727c0,-0.278 -0.07,-0.543 -0.209,-0.794c-0.139,-0.252 -0.336,-0.452 -0.592,-0.6c-0.256,-0.148 -0.524,-0.222 -0.802,-0.222c-0.386,0 -0.684,0.067 -0.895,0.202c-0.212,0.135 -0.412,0.395 -0.6,0.781c-0.188,0.387 -0.4,0.921 -0.633,1.603l-2.95,8.419l-3.112,-9.052c-0.206,-0.628 -0.444,-1.112 -0.714,-1.448c-0.269,-0.336 -0.669,-0.505 -1.198,-0.505c-0.306,0 -0.6,0.081 -0.883,0.242c-0.282,0.162 -0.505,0.378 -0.667,0.646c-0.161,0.27 -0.242,0.562 -0.242,0.876c0,0.297 0.139,0.773 0.418,1.428l4.525,11.396l-0.336,0.822c-0.251,0.601 -0.474,1.057 -0.667,1.367Z" style="fill:none;fill-rule:nonzero;stroke:#943fbe;stroke-width:1px;"/><path d="M109.308,18.057c-0.355,-0.687 -0.849,-1.255 -1.482,-1.704c-0.633,-0.449 -1.401,-0.831 -2.303,-1.146c-0.902,-0.313 -1.911,-0.601 -3.024,-0.861c-0.889,-0.225 -1.527,-0.395 -1.913,-0.513c-0.386,-0.116 -0.768,-0.278 -1.145,-0.484c-0.377,-0.207 -0.674,-0.453 -0.889,-0.741c-0.216,-0.287 -0.323,-0.628 -0.323,-1.024c0,-0.637 0.316,-1.183 0.95,-1.636c0.632,-0.454 1.465,-0.681 2.498,-0.681c1.113,0 1.922,0.209 2.425,0.627c0.502,0.417 0.934,0.999 1.293,1.744c0.278,0.521 0.537,0.896 0.774,1.125c0.238,0.229 0.586,0.344 1.044,0.344c0.503,0 0.923,-0.192 1.26,-0.573c0.336,-0.381 0.505,-0.81 0.505,-1.287c0,-0.52 -0.135,-1.054 -0.404,-1.602c-0.269,-0.548 -0.696,-1.071 -1.28,-1.569c-0.584,-0.499 -1.318,-0.899 -2.202,-1.2c-0.885,-0.3 -1.933,-0.451 -3.145,-0.451c-1.518,0 -2.838,0.227 -3.961,0.681c-1.122,0.453 -1.98,1.101 -2.573,1.946c-0.592,0.844 -0.889,1.81 -0.889,2.896c0,1.14 0.281,2.094 0.843,2.862c0.561,0.768 1.319,1.374 2.276,1.819c0.956,0.445 2.144,0.833 3.562,1.165c1.06,0.242 1.907,0.471 2.54,0.687c0.633,0.216 1.149,0.527 1.549,0.936c0.399,0.409 0.599,0.941 0.599,1.596c0,0.826 -0.37,1.516 -1.111,2.068c-0.741,0.552 -1.704,0.829 -2.89,0.829c-0.861,0 -1.558,-0.137 -2.087,-0.412c-0.53,-0.273 -0.941,-0.621 -1.233,-1.044c-0.292,-0.421 -0.563,-0.947 -0.815,-1.576c-0.206,-0.529 -0.455,-0.928 -0.747,-1.198c-0.292,-0.269 -0.649,-0.404 -1.071,-0.404c-0.521,0 -0.95,0.173 -1.287,0.518c-0.336,0.346 -0.505,0.761 -0.505,1.246c0,0.835 0.281,1.696 0.842,2.579c0.561,0.885 1.291,1.592 2.189,2.123c1.266,0.736 2.874,1.104 4.822,1.104c1.626,0 3.031,-0.269 4.217,-0.809c1.185,-0.539 2.085,-1.284 2.7,-2.235c0.615,-0.952 0.923,-2.025 0.923,-3.22c0,-0.997 -0.178,-1.838 -0.532,-2.525Z" style="fill:none;fill-rule:nonzero;stroke:#943fbe;stroke-width:1px;"/><path d="M115.881,12.426c-0.328,-0.354 -0.752,-0.532 -1.273,-0.532c-0.53,0 -0.948,0.173 -1.253,0.518c-0.305,0.346 -0.458,0.869 -0.458,1.57l0,15.868c0,0.799 0.112,1.407 0.337,1.825c0.224,0.417 0.682,0.626 1.374,0.626c1.176,0 1.765,-0.808 1.765,-2.425l0,-5.522c0.646,0.817 1.326,1.436 2.04,1.859c0.714,0.422 1.596,0.633 2.647,0.633c0.871,0 1.686,-0.173 2.445,-0.519c0.759,-0.345 1.417,-0.839 1.973,-1.481c0.557,-0.643 0.995,-1.438 1.314,-2.385c0.318,-0.947 0.478,-1.986 0.478,-3.118c0,-1.536 -0.276,-2.864 -0.828,-3.987c-0.553,-1.122 -1.305,-1.976 -2.257,-2.56c-0.952,-0.583 -1.993,-0.875 -3.125,-0.875c-0.943,0 -1.787,0.199 -2.532,0.6c-0.746,0.399 -1.464,1.025 -2.155,1.879l0,-0.445c0,-0.665 -0.164,-1.175 -0.492,-1.529Zm7.227,9.449c-0.315,0.71 -0.732,1.241 -1.253,1.597c-0.521,0.354 -1.087,0.531 -1.697,0.531c-1.024,0 -1.882,-0.406 -2.573,-1.219c-0.692,-0.812 -1.037,-1.951 -1.037,-3.415c0,-1.552 0.348,-2.729 1.043,-3.528c0.696,-0.8 1.552,-1.199 2.567,-1.199c0.637,0 1.219,0.186 1.744,0.558c0.525,0.373 0.936,0.908 1.232,1.604c0.297,0.696 0.445,1.528 0.445,2.499c0,1.005 -0.157,1.863 -0.471,2.572Z" style="fill:none;fill-rule:nonzero;stroke:#943fbe;stroke-width:1px;"/><path d="M140.687,26.313c0.368,0.354 0.741,0.532 1.118,0.532c0.449,0 0.851,-0.154 1.205,-0.465c0.355,-0.309 0.532,-0.652 0.532,-1.03c0,-0.216 -0.114,-0.698 -0.343,-1.448c-0.229,-0.75 -0.344,-1.47 -0.344,-2.162c0.009,-0.737 0.016,-1.406 0.021,-2.006c0.004,-0.602 0.006,-1.335 0.006,-2.195c0,-1.366 -0.191,-2.461 -0.572,-3.289c-0.382,-0.826 -1.035,-1.429 -1.96,-1.811c-0.925,-0.382 -2.196,-0.572 -3.812,-0.572c-1.446,0.001 -2.654,0.198 -3.623,0.592c-0.97,0.395 -1.684,0.898 -2.142,1.508c-0.458,0.613 -0.687,1.24 -0.687,1.886c0,0.414 0.15,0.753 0.451,1.018c0.301,0.265 0.658,0.397 1.071,0.397c0.458,0 0.756,-0.082 0.896,-0.248c0.139,-0.167 0.377,-0.511 0.714,-1.031c0.336,-0.521 0.74,-0.911 1.212,-1.172c0.471,-0.26 1.174,-0.391 2.108,-0.391c1.086,0 1.803,0.228 2.149,0.681c0.345,0.453 0.541,1.165 0.585,2.134c-0.772,0.225 -1.488,0.417 -2.148,0.573c-0.66,0.157 -1.453,0.329 -2.377,0.518c-0.926,0.189 -1.505,0.311 -1.738,0.365c-1.114,0.242 -1.989,0.719 -2.627,1.428c-0.637,0.709 -0.956,1.567 -0.956,2.572c0,0.745 0.193,1.437 0.579,2.075c0.386,0.638 0.936,1.143 1.65,1.515c0.714,0.373 1.542,0.559 2.486,0.559c1.032,0 1.963,-0.173 2.795,-0.518c0.83,-0.346 1.69,-0.865 2.579,-1.556c0.413,0.673 0.803,1.188 1.172,1.542Zm-1.415,-6.339c0,1.277 -0.166,2.193 -0.498,2.749c-0.287,0.503 -0.739,0.914 -1.354,1.233c-0.615,0.319 -1.286,0.478 -2.013,0.478c-0.683,0 -1.235,-0.195 -1.657,-0.586c-0.422,-0.39 -0.633,-0.864 -0.633,-1.421c0,-0.539 0.179,-0.959 0.538,-1.261c0.36,-0.299 0.737,-0.502 1.132,-0.606c0.395,-0.101 1.107,-0.264 2.135,-0.483c1.028,-0.221 1.812,-0.429 2.35,-0.627l0,0.524Z" style="fill:none;fill-rule:nonzero;stroke:#943fbe;stroke-width:1px;"/><path d="M159.356,21.201c-0.296,-0.341 -0.669,-0.512 -1.117,-0.512c-0.378,0 -0.696,0.117 -0.957,0.351c-0.261,0.233 -0.503,0.557 -0.728,0.97c-0.403,0.7 -0.868,1.221 -1.393,1.562c-0.526,0.342 -1.157,0.512 -1.893,0.512c-0.548,0 -1.051,-0.106 -1.509,-0.317c-0.458,-0.211 -0.848,-0.52 -1.172,-0.929c-0.323,-0.408 -0.57,-0.903 -0.74,-1.482c-0.171,-0.579 -0.257,-1.215 -0.257,-1.906c0,-1.473 0.333,-2.633 0.997,-3.481c0.665,-0.849 1.54,-1.274 2.627,-1.274c0.754,0 1.376,0.171 1.866,0.512c0.489,0.342 0.959,0.853 1.407,1.536c0.252,0.35 0.478,0.604 0.681,0.761c0.202,0.157 0.456,0.235 0.76,0.235c0.467,0 0.865,-0.152 1.193,-0.458c0.328,-0.305 0.492,-0.678 0.492,-1.117c0,-0.432 -0.147,-0.897 -0.439,-1.395c-0.292,-0.498 -0.714,-0.967 -1.265,-1.407c-0.553,-0.44 -1.227,-0.8 -2.021,-1.078c-0.795,-0.278 -1.669,-0.417 -2.62,-0.417c-1.536,0 -2.856,0.316 -3.96,0.949c-1.105,0.633 -1.949,1.53 -2.533,2.688c-0.584,1.158 -0.875,2.492 -0.875,4c0,2.227 0.637,4.003 1.913,5.328c1.274,1.324 3.048,1.986 5.32,1.986c1.069,0 2.03,-0.143 2.883,-0.43c0.853,-0.288 1.56,-0.667 2.121,-1.139c0.562,-0.471 0.979,-0.967 1.253,-1.488c0.274,-0.521 0.411,-1.01 0.411,-1.468c0,-0.387 -0.148,-0.75 -0.445,-1.092Z" style="fill:none;fill-rule:nonzero;stroke:#943fbe;stroke-width:1px;"/><path d="M175.506,19.861c0.53,-0.273 0.795,-0.873 0.795,-1.798c0,-0.997 -0.256,-1.975 -0.768,-2.936c-0.511,-0.961 -1.282,-1.745 -2.31,-2.351c-1.029,-0.606 -2.261,-0.909 -3.697,-0.909c-1.105,0 -2.111,0.177 -3.018,0.531c-0.907,0.356 -1.67,0.865 -2.29,1.529c-0.619,0.665 -1.091,1.462 -1.414,2.391c-0.323,0.93 -0.486,1.938 -0.486,3.024c0,2.308 0.657,4.135 1.967,5.483c1.312,1.347 3.148,2.02 5.51,2.02c1.032,0 1.946,-0.134 2.741,-0.404c0.795,-0.269 1.454,-0.608 1.98,-1.017c0.525,-0.409 0.918,-0.835 1.178,-1.28c0.261,-0.444 0.391,-0.833 0.391,-1.165c0,-0.377 -0.116,-0.669 -0.35,-0.875c-0.234,-0.207 -0.539,-0.31 -0.916,-0.31c-0.35,0 -0.62,0.081 -0.808,0.243c-0.458,0.43 -0.831,0.772 -1.118,1.023c-0.287,0.251 -0.602,0.488 -0.943,0.707c-0.341,0.22 -0.694,0.382 -1.057,0.486c-0.364,0.102 -0.766,0.154 -1.206,0.154c-0.656,0 -1.255,-0.161 -1.798,-0.484c-0.543,-0.324 -0.979,-0.804 -1.307,-1.442c-0.328,-0.638 -0.496,-1.374 -0.505,-2.209l7.193,0c0.961,0 1.706,-0.137 2.236,-0.411Zm-8.358,-4.485c0.588,-0.634 1.34,-0.951 2.256,-0.951c0.961,0 1.736,0.313 2.324,0.937c0.588,0.624 0.926,1.564 1.017,2.822l-6.668,0c0.125,-1.239 0.483,-2.176 1.071,-2.808Z" style="fill:none;fill-rule:nonzero;stroke:#943fbe;stroke-width:1px;"/></g></g></g></g><path d="M6.251,12.84c-1.2,3.92 -0.326,8.014 2.017,11.228l-1.024,3.348c-0.139,0.457 0.118,0.942 0.575,1.081c0.141,0.043 0.288,0.049 0.432,0.018l3.887,-0.819c1.112,0.711 2.344,1.287 3.679,1.695c2.782,0.85 5.607,0.849 8.162,0.148c-8.549,-5.812 -15.175,-12.276 -17.729,-16.699" style="fill:#943fbe;fill-rule:nonzero;"/><path d="M32.155,29.286c-7.925,3.161 -29.949,-18.615 -26.084,-23.069c0.899,-1.028 2.367,-1.026 4.983,0.08c-1.074,0.735 -1.812,1.443 -2.624,2.445c3.326,6.895 13.537,15.806 20.838,17.996c0.956,-0.875 1.668,-1.662 2.345,-2.741c1.218,2.225 1.358,3.777 0.542,5.289m-28.637,-25.29c-2.027,2.332 -0.926,6.883 2.405,11.838c1.877,2.831 9.04,10.646 16.985,14.764c3.865,2.005 10.031,3.065 12.056,0.735c2.028,-2.331 1.507,-5.892 -1.824,-10.847c0.232,-0.571 0.436,-2.582 0.375,-3.528c-0.51,-7.845 -7.253,-13.635 -15.535,-13.104c-0.944,0.06 -2.089,0.268 -3.008,0.55c-5.369,-2.609 -9.427,-2.738 -11.454,-0.408" style="fill:#943fbe;fill-rule:nonzero;"/></g></svg>