<?xml version="1.0" encoding="UTF-8" standalone="no"?><!DOCTYPE svg PUBLIC "-//W3C//DTD SVG 1.1//EN" "http://www.w3.org/Graphics/SVG/1.1/DTD/svg11.dtd"><svg width="100%" height="100%" viewBox="0 0 1127 204" version="1.1" xmlns="http://www.w3.org/2000/svg" xmlns:xlink="http://www.w3.org/1999/xlink" xml:space="preserve" xmlns:serif="http://www.serif.com/" style="fill-rule:evenodd;clip-rule:evenodd;stroke-linejoin:round;stroke-miterlimit:2;"><g><path d="M33,33l62,-29l59,32l-59.531,59l-61.469,-62Z" style="fill:#d3ebdd;"/><path d="M271.704,24.443l0,28.945l-16.51,0l0,7.105l16.51,0l0,79.832c0,18.6 7.001,25.81 23.302,25.81c1.254,0 8.255,-0.105 8.882,-0.209l0,-7.21c-0.418,0.104 -7.21,0.209 -7.837,0.209c-11.285,0 -16.301,-5.329 -16.301,-18.809l0,-79.623l22.675,0l0,-7.105l-22.675,0l0,-28.945l-8.046,0Z" style="fill:#515252;fill-rule:nonzero;"/><path d="M324.055,165.926l8.15,0l0,-112.538l-8.15,0l0,112.538Zm4.075,-140.124c3.657,0 6.583,-2.822 6.583,-6.374c0,-3.657 -2.926,-6.479 -6.583,-6.479c-3.553,0 -6.479,2.822 -6.479,6.479c0,3.552 2.926,6.374 6.479,6.374Z" style="fill:#515252;fill-rule:nonzero;"/><path d="M358.119,165.926l8.151,0l0,-66.98c0,-24.033 13.27,-39.602 32.183,-39.602c17.137,0 29.467,12.852 29.467,32.392l0,74.19l8.046,0l0,-69.697c0,-21.837 12.957,-36.885 31.974,-36.885c18.496,0 29.676,12.434 29.676,32.706l0,73.876l8.151,0l0,-75.653c0,-23.406 -14.42,-38.348 -36.05,-38.348c-18.391,0 -31.766,12.225 -35.737,26.75l-0.209,0c-3.448,-14.943 -15.987,-26.75 -33.855,-26.75c-17.659,0 -29.676,11.18 -33.855,26.227l-0.314,0l0,-24.764l-7.628,0l0,112.538Z" style="fill:#515252;fill-rule:nonzero;"/><path d="M573.582,59.239c23.72,0 39.812,18.182 39.916,44.827l-80.772,0c1.253,-26.854 17.45,-44.827 40.856,-44.827Zm38.558,75.235c-3.24,14.733 -16.928,25.6 -37.513,25.6c-25.287,0 -42.006,-17.972 -42.006,-48.693l0,-0.418l89.132,0l0,-4.702c0,-32.706 -19.018,-54.336 -48.066,-54.336c-29.676,0 -49.321,22.988 -49.321,57.888c0,36.155 19.645,57.576 50.156,57.576c24.87,0 42.215,-13.898 45.873,-32.915l-8.255,0Z" style="fill:#515252;fill-rule:nonzero;"/><path d="M729.798,87.243c-3.344,-19.853 -20.794,-35.318 -44.932,-35.318c-30.094,0 -49.529,22.57 -49.529,57.784c0,35.423 19.435,57.68 49.634,57.68c23.824,0 41.379,-14.107 44.827,-34.378l-8.151,0c-3.343,16.196 -17.45,27.063 -36.676,27.063c-25.392,0 -41.484,-19.54 -41.484,-50.365c0,-30.721 16.092,-50.365 41.379,-50.365c19.54,0 33.647,11.807 36.886,27.899l8.046,0Z" style="fill:#515252;fill-rule:nonzero;"/><path d="M783.298,160.179c-17.555,0 -30.198,-10.241 -30.198,-24.556c0,-15.047 11.598,-23.824 33.124,-25.392l37.512,-2.821l0,16.823c0,19.958 -17.972,35.946 -40.438,35.946Zm-1.045,7.21c19.122,0 35.945,-10.45 41.483,-25.705l0.209,0l0,24.242l7.837,0l0,-75.862c0,-23.51 -15.465,-38.139 -40.125,-38.139c-23.719,0 -40.438,13.375 -42.424,34.169l7.837,0c2.717,-17.032 15.361,-26.75 34.483,-26.75c20.271,0 32.183,11.598 32.183,31.243l0,10.031l-38.557,2.821c-26.437,1.986 -40.23,12.957 -40.23,32.184c0,18.809 15.256,31.766 37.304,31.766Z" style="fill:#515252;fill-rule:nonzero;"/><path d="M856.024,165.926l8.151,0l0,-66.98c0,-24.033 13.27,-39.602 32.183,-39.602c17.137,0 29.467,12.852 29.467,32.392l0,74.19l8.046,0l0,-69.697c0,-21.837 12.957,-36.885 31.975,-36.885c18.495,0 29.675,12.434 29.675,32.706l0,73.876l8.151,0l0,-75.653c0,-23.406 -14.42,-38.348 -36.05,-38.348c-18.391,0 -31.766,12.225 -35.736,26.75l-0.209,0c-3.448,-14.943 -15.988,-26.75 -33.856,-26.75c-17.659,0 -29.675,11.18 -33.855,26.227l-0.314,0l0,-24.764l-7.628,0l0,112.538Z" style="fill:#515252;fill-rule:nonzero;"/><path d="M1077.97,51.925c-20.69,0 -37.095,13.688 -42.111,31.556l-0.313,0l0,-30.093l-7.629,0l0,149.424l8.15,0l0,-66.562l0.315,0c4.91,17.659 20.898,31.139 41.692,31.139c28.213,0 47.544,-23.302 47.544,-57.68c0,-34.378 -19.435,-57.784 -47.648,-57.784Zm-0.941,108.149c-24.137,0 -40.962,-20.688 -40.962,-50.365c0,-29.78 16.825,-50.365 40.962,-50.365c23.929,0 40.334,20.376 40.334,50.365c0,29.989 -16.405,50.365 -40.334,50.365Z" style="fill:#515252;fill-rule:nonzero;"/><path d="M174.021,143.919l0.241,0.148c-16.436,26.954 -46.01,44.933 -79.762,44.933c-51.639,0 -93.5,-42.085 -93.5,-94c0,-51.915 41.861,-94 93.5,-94c26.111,0 49.722,10.76 66.681,28.115l-9.463,9.47c-14.484,-14.567 -34.548,-23.585 -56.718,-23.585c-44.183,0 -80,35.817 -80,80c0,44.183 35.817,80 80,80c28.444,0 53.422,-14.845 67.598,-37.21c1.02,-2.237 3.28,-3.79 5.902,-3.79c3.59,0 6.5,2.91 6.5,6.5c0,1.255 -0.356,2.427 -0.979,3.419Z" style="fill:#27a35b;"/><path d="M94.482,102.787l87.632,-88.769c2.714,-2.715 7.113,-2.715 9.827,0c2.714,2.714 2.714,7.115 0,9.83l-92.941,93.152c-1.413,1.413 -3.117,2.067 -4.787,1.949c-1.795,0.039 -3.603,-0.632 -4.976,-2.005l-38.332,-38.846c-2.537,-2.544 -2.537,-6.668 0,-9.212c2.537,-2.544 6.65,-2.544 9.187,0l34.39,33.901Z" style="fill:#27a35b;"/></g></svg>